<svg width="17" height="21" viewBox="0 0 17 21" fill="none" xmlns="http://www.w3.org/2000/svg">
<path d="M8.45954 3.51189V0.535111C8.45954 0.0549844 7.88339 -0.179744 7.55264 0.161679L3.49824 4.20541C3.28485 4.4188 3.28485 4.74955 3.49824 4.96294L7.54197 9.00667C7.88339 9.33742 8.45954 9.10269 8.45954 8.62257V5.64579C12.4393 5.64579 15.5867 9.29474 14.7119 13.4238C14.2104 15.8458 12.2472 17.7983 9.8359 18.2998C6.0269 19.1 2.63401 16.486 2.12188 12.9544C2.04719 12.4422 1.59907 12.0475 1.07627 12.0475C0.436103 12.0475 -0.0760318 12.6129 0.00932398 13.2531C0.670831 17.937 5.13067 21.4046 10.1773 20.423C13.5062 19.7722 16.1842 17.0941 16.8351 13.7653C17.8914 8.29181 13.7303 3.51189 8.45954 3.51189Z" fill="#212121"/>
</svg>
