<svg width="28" height="28" viewBox="0 0 28 28" fill="none" xmlns="http://www.w3.org/2000/svg">
<path fillRule="evenodd" clipRule="evenodd" d="M13.9679 23.7629C10.1891 23.7629 6.96091 23.1913 6.96091 20.9023C6.96091 18.6133 10.1681 16.6206 13.9679 16.6206C17.7467 16.6206 20.9749 18.5946 20.9749 20.8824C20.9749 23.1703 17.7677 23.7629 13.9679 23.7629Z" stroke="#212121" strokeWidth="1.5" strokeLinecap="round" strokeLinejoin="round"/>
<path fillRule="evenodd" clipRule="evenodd" d="M13.9679 13.3569C16.4483 13.3569 18.4596 11.3468 18.4596 8.86642C18.4596 6.38609 16.4483 4.37476 13.9679 4.37476C11.4876 4.37476 9.47625 6.38609 9.47625 8.86642C9.46925 11.3374 11.4643 13.3488 13.9364 13.3569H13.9679Z" stroke="#212121" strokeWidth="1.5" strokeLinecap="round" strokeLinejoin="round"/>
<path d="M21.4226 12.1235C22.8657 11.7374 23.9297 10.4214 23.9297 8.85454C23.9297 7.22004 22.7712 5.85504 21.2289 5.54004" stroke="#212121" strokeWidth="1.5" strokeLinecap="round" strokeLinejoin="round"/>
<path d="M22.1004 15.802C24.1467 15.802 25.8944 17.1892 25.8944 18.4282C25.8944 19.1573 25.2912 19.9518 24.3766 20.1665" stroke="#212121" strokeWidth="1.5" strokeLinecap="round" strokeLinejoin="round"/>
<path d="M6.51444 12.1235C5.0701 11.7374 4.0061 10.4214 4.0061 8.85454C4.0061 7.22004 5.16577 5.85504 6.70694 5.54004" stroke="#212121" strokeWidth="1.5" strokeLinecap="round" strokeLinejoin="round"/>
<path d="M5.83544 15.802C3.7891 15.802 2.04144 17.1892 2.04144 18.4282C2.04144 19.1573 2.6446 19.9518 3.56044 20.1665" stroke="#212121" strokeWidth="1.5" strokeLinecap="round" strokeLinejoin="round"/>
</svg>
