<svg width="28" height="28" viewBox="0 0 28 28" fill="none" xmlns="http://www.w3.org/2000/svg">
<path fill-rule="evenodd" clip-rule="evenodd" d="M22.2499 22.2481C18.6844 25.814 13.4047 26.5844 9.08413 24.5863C8.4463 24.3295 7.92338 24.1219 7.42625 24.1219C6.04155 24.1301 4.31801 25.4728 3.42223 24.5781C2.52646 23.6822 3.87012 21.9573 3.87012 20.5642C3.87012 20.067 3.6708 19.5534 3.41403 18.9144C1.41495 14.5945 2.18644 9.31305 5.75195 5.74833C10.3035 1.19509 17.6983 1.19509 22.2499 5.74715C26.8097 10.3074 26.8015 17.696 22.2499 22.2481Z" stroke="#212121" stroke-width="1.5" stroke-linecap="round" stroke-linejoin="round"/>
<path d="M18.596 14.4818H18.6065" stroke="#212121" stroke-width="2" stroke-linecap="round" stroke-linejoin="round"/>
<path d="M13.9188 14.4818H13.9293" stroke="#212121" stroke-width="2" stroke-linecap="round" stroke-linejoin="round"/>
<path d="M9.2416 14.4818H9.2521" stroke="#212121" stroke-width="2" stroke-linecap="round" stroke-linejoin="round"/>
</svg>
