<svg width="21" height="21" viewBox="0 0 21 21" fill="none" xmlns="http://www.w3.org/2000/svg">
<path fill-rule="evenodd" clip-rule="evenodd" d="M8.41663 10.9613C10.7121 10.9613 12.5522 9.09746 12.5522 6.77229C12.5522 4.44711 10.7121 2.58325 8.41663 2.58325C6.12115 2.58325 4.2811 4.44711 4.2811 6.77229C4.2811 9.09746 6.12115 10.9613 8.41663 10.9613ZM8.41663 13.0126C5.04515 13.0126 2.16663 13.5516 2.16663 15.7053C2.16663 17.8581 5.02763 18.4166 8.41663 18.4166C11.7873 18.4166 14.6666 17.8775 14.6666 15.7239C14.6666 13.5702 11.8056 13.0126 8.41663 13.0126ZM17.0816 8.4898H18.0841C18.4968 8.4898 18.8333 8.83101 18.8333 9.24948C18.8333 9.66796 18.4968 10.0092 18.0841 10.0092H17.0816V10.9902C17.0816 11.4087 16.746 11.7499 16.3324 11.7499C15.9198 11.7499 15.5833 11.4087 15.5833 10.9902V10.0092H14.5824C14.1689 10.0092 13.8333 9.66796 13.8333 9.24948C13.8333 8.83101 14.1689 8.4898 14.5824 8.4898H15.5833V7.5096C15.5833 7.09112 15.9198 6.74992 16.3324 6.74992C16.746 6.74992 17.0816 7.09112 17.0816 7.5096V8.4898Z" fill="white"/>
</svg>
