<svg width="21" height="24" viewBox="0 0 21 24" fill="none" xmlns="http://www.w3.org/2000/svg">
<path d="M14.2639 8.73389H7.77789L7.01477 11.8459L6.25165 14.9579H12.7174L14.2639 8.73389ZM7.48786 14.0753L8.61387 10.1343H12.7174L11.9919 14.0753H7.48786Z" fill="#9E9E9E"/>
<path d="M1.12601 23.6462H5.63006L7.16277 17.4532H11.1038L9.5711 23.6462H14.0751L15.7642 17.4532H21V13.9504H16.3272L17.4532 9.69876H21V6.19306H18.0162L19.7052 0H15.7642L14.0751 6.19306H9.5711L11.2601 0H6.92485L5.5 6.19306H0V9.5711L4.8409 9.69876L3.76976 13.9504H0.250439V17.2094H2.95572L1.12601 23.6462ZM0.98936 16.4704V14.9578H4.52534L6.05159 8.73381H0.98936V7.22127H6.41526L7.9956 0.738921H9.96133L8.38026 7.22127H14.8648L16.4459 0.738921H18.4289L16.8478 7.22127H20.0922V8.73381H16.4848L14.9377 14.9578H20.0922V16.4704H14.5762L12.9951 22.9073H11.0286L12.591 16.4704H6.12663L4.54556 22.9073H2.58056L4.16162 16.4704H0.98936Z" fill="#9E9E9E"/>
</svg>
