<svg width="28" height="28" viewBox="0 0 28 28" fill="none" xmlns="http://www.w3.org/2000/svg">
<path fill-rule="evenodd" clip-rule="evenodd" d="M18.4914 2.91742C19.2276 2.91742 19.9626 3.02126 20.6614 3.25576C24.9676 4.65576 26.5193 9.38076 25.2231 13.5108C24.4881 15.6213 23.2864 17.5474 21.7126 19.1213C19.4598 21.3029 16.9876 23.2396 14.3264 24.9079L14.0348 25.0841L13.7314 24.8963C11.0609 23.2396 8.57475 21.3029 6.30092 19.1096C4.73759 17.5358 3.53475 15.6213 2.78809 13.5108C1.46975 9.38076 3.02142 4.65576 7.37425 3.23126C7.71259 3.11459 8.06142 3.03292 8.41142 2.98742H8.55142C8.87925 2.93959 9.20475 2.91742 9.53142 2.91742H9.65975C10.3948 2.93959 11.1064 3.06792 11.7959 3.30242H11.8648C11.9114 3.32459 11.9464 3.34909 11.9698 3.37126C12.2276 3.45409 12.4714 3.54742 12.7048 3.67576L13.1481 3.87409C13.2552 3.93122 13.3755 4.01852 13.4794 4.09397C13.5452 4.14178 13.6045 4.18482 13.6498 4.21242C13.6688 4.22366 13.6881 4.23495 13.7077 4.24634C13.8077 4.30473 13.9119 4.36556 13.9998 4.43292C15.2959 3.44242 16.8698 2.90576 18.4914 2.91742ZM21.5948 11.3174C22.0731 11.3046 22.4814 10.9208 22.5164 10.4296V10.2908C22.5514 8.65626 21.5609 7.17576 20.0548 6.60409C19.5764 6.43959 19.0514 6.69742 18.8764 7.18742C18.7131 7.67742 18.9698 8.21409 19.4598 8.38792C20.2076 8.66792 20.7081 9.40409 20.7081 10.2196V10.2558C20.6859 10.5229 20.7664 10.7808 20.9298 10.9791C21.0931 11.1774 21.3381 11.2929 21.5948 11.3174Z" fill="url(#paint0_linear_3509_1646)"/>
<defs>
<linearGradient id="paint0_linear_3509_1646" x1="25.6666" y1="25.0841" x2="-1.86754" y2="16.6806" gradientUnits="userSpaceOnUse">
<stop stop-color="#FF4D67"/>
<stop offset="1" stop-color="#FF8A9B"/>
</linearGradient>
</defs>
</svg>
