<svg width="18" height="22" viewBox="0 0 18 22" fill="none" xmlns="http://www.w3.org/2000/svg">
<g id="icon/action/visibility_24px">
<path id="icon/action/visibility_24px_2" fill-rule="evenodd" clip-rule="evenodd" d="M9 4.125C5.25 4.125 2.0475 6.97583 0.75 11C2.0475 15.0242 5.25 17.875 9 17.875C12.75 17.875 15.9525 15.0242 17.25 11C15.9525 6.97583 12.75 4.125 9 4.125ZM9 14C7.344 14 6 12.656 6 11C6 9.344 7.344 8 9 8C10.656 8 12 9.344 12 11C12 12.656 10.656 14 9 14ZM7 11C7 9.89333 7.89333 9 9 9C10.1067 9 11 9.89333 11 11C11 12.1067 10.1067 13 9 13C7.89333 13 7 12.1067 7 11Z" fill="#9E9E9E"/>
</g>
</svg>
