<svg width="84" height="84" viewBox="0 0 84 84" fill="none" xmlns="http://www.w3.org/2000/svg">
<path fill-rule="evenodd" clip-rule="evenodd" d="M37.71 0.21328C19.419 2.05565 4.14986 16.0332 0.620461 34.1652C-0.200347 38.3812 -0.207695 45.529 0.603928 49.6952C4.773 71.0921 24.6613 86.0113 46.0401 83.7791C52.2818 83.1272 58.2879 81.1918 63.3406 78.204C73.6753 72.0928 81.0843 61.5607 83.3961 49.6952C84.2077 45.529 84.2003 38.3812 83.3795 34.1652C79.2204 12.7984 59.3586 -1.9673 37.71 0.21328ZM46.4828 21.4903C52.2542 22.6819 58.281 27.4377 60.8323 32.8138C62.3912 36.0984 62.9446 38.5355 62.9372 42.0839C62.9174 51.7124 56.5332 59.8774 47.1144 62.3207C44.0138 63.125 38.2637 62.9172 35.3398 61.8953C25.2025 58.352 19.2896 47.961 21.4603 37.5037C22.9733 30.2144 29.635 23.384 36.9561 21.6149C39.3858 21.0275 43.9528 20.9681 46.4828 21.4903ZM38.0775 30.0433C32.9248 31.6504 29.5078 36.4073 29.5078 41.9744C29.5078 45.6412 30.577 48.2292 33.1526 50.7978C35.7282 53.3664 38.3233 54.4327 42 54.4327C45.6767 54.4327 48.2718 53.3664 50.8474 50.7978C53.4072 48.2449 54.4947 45.6316 54.4866 42.0521C54.4797 38.9778 54.1141 38.2625 53.2341 39.6014C52.478 40.7524 50.0001 41.955 48.3618 41.9663C45.0271 41.9894 42 39.0027 42 35.6895C42 34.1392 43.322 31.4614 44.4521 30.723C45.1326 30.2786 45.2336 30.062 44.8695 29.8315C44.1376 29.3687 39.808 29.5039 38.0775 30.0433Z" fill="white"/>
</svg>
