<svg width="32" height="32" view-box="0 0 32 32" fill="none" xmlns="http://www.w3.org/2000/svg">
<rect width="32" height="32" rx="12" fill="url(#paint0_linear_3509_1537)"/>
<path fill-rule="evenodd" clip-rule="evenodd" d="M15.0195 6.44865C10.8386 6.86976 7.34856 10.0646 6.54184 14.2091C6.35423 15.1728 6.35255 16.8065 6.53807 17.7588C7.491 22.6495 12.0369 26.0596 16.9235 25.5494C18.3501 25.4004 19.723 24.958 20.8779 24.2751C23.2401 22.8783 24.9336 20.4709 25.462 17.7588C25.6475 16.8065 25.6458 15.1728 25.4582 14.2091C24.5075 9.32525 19.9677 5.95023 15.0195 6.44865ZM17.0247 11.312C18.3438 11.5843 19.7214 12.6714 20.3045 13.9002C20.6609 14.651 20.7874 15.208 20.7857 16.0191C20.7811 18.2199 19.3219 20.0862 17.169 20.6446C16.4603 20.8285 15.146 20.781 14.4777 20.5474C12.1606 19.7375 10.8091 17.3624 11.3052 14.9722C11.6511 13.3061 13.1737 11.7448 14.8471 11.3404C15.4025 11.2062 16.4464 11.1926 17.0247 11.312ZM15.1034 13.2669C13.9257 13.6343 13.1447 14.7216 13.1447 15.994C13.1447 16.8322 13.3891 17.4237 13.9778 18.0108C14.5665 18.5979 15.1596 18.8417 16 18.8417C16.8404 18.8417 17.4336 18.5979 18.0223 18.0108C18.6074 17.4273 18.856 16.83 18.8541 16.0118C18.8525 15.3091 18.769 15.1456 18.5678 15.4517C18.395 15.7147 17.8286 15.9896 17.4542 15.9922C16.6919 15.9975 16 15.3148 16 14.5575C16 14.2031 16.3022 13.5911 16.5605 13.4223C16.716 13.3207 16.7391 13.2712 16.6559 13.2185C16.4886 13.1128 15.499 13.1437 15.1034 13.2669Z" fill="#FAFAFA"/>
<defs>
<linearGradient id="paint0_linear_3509_1537" x1="32" y1="32" x2="-6.07713" y2="20.9599" gradient-units="userSpaceOnUse">
<stop stop-color="#FF4D67"/>
<stop offset="1" stop-color="#FF8A9B"/>
</linearGradient>
</defs>
</svg>
