<svg width="20" height="21" viewBox="0 0 20 21" fill="none" xmlns="http://www.w3.org/2000/svg">
<path fillRule="evenodd" clipRule="evenodd" d="M14.1162 2.83325C15.2337 2.83325 16.3087 3.27492 17.0995 4.06742C17.8912 4.85825 18.3337 5.92492 18.3337 7.04159V13.6249C18.3337 15.9499 16.442 17.8333 14.1162 17.8333H5.88366C3.55783 17.8333 1.66699 15.9499 1.66699 13.6249V7.04159C1.66699 4.71659 3.54949 2.83325 5.88366 2.83325H14.1162ZM15.442 8.28325L15.5087 8.21659C15.7078 7.97492 15.7078 7.62492 15.4995 7.38325C15.3837 7.25909 15.2245 7.18325 15.0587 7.16659C14.8837 7.15742 14.717 7.21659 14.5912 7.33325L10.8337 10.3333C10.3503 10.7341 9.65783 10.7341 9.16699 10.3333L5.41699 7.33325C5.15783 7.14159 4.79949 7.16659 4.58366 7.39159C4.35866 7.61659 4.33366 7.97492 4.52449 8.22492L4.63366 8.33325L8.42533 11.2916C8.89199 11.6583 9.45783 11.8583 10.0503 11.8583C10.6412 11.8583 11.217 11.6583 11.6828 11.2916L15.442 8.28325Z" fill="#9E9E9E"/>
</svg>
