<svg width="20" height="21" viewBox="0 0 20 21" fill="none" xmlns="http://www.w3.org/2000/svg">
<path fill-rule="evenodd" clip-rule="evenodd" d="M14.6023 6.49667V7.77445C16.0375 8.22247 17.0833 9.52178 17.0833 11.0737V15.1878C17.0833 17.109 15.4905 18.6667 13.5268 18.6667H6.47399C4.50945 18.6667 2.91666 17.109 2.91666 15.1878V11.0737C2.91666 9.52178 3.96328 8.22247 5.39773 7.77445V6.49667C5.4062 4.01232 7.46388 2 9.98729 2C12.5446 2 14.6023 4.01232 14.6023 6.49667ZM10.0042 3.4492C11.7232 3.4492 13.1204 4.8156 13.1204 6.49667V7.59475H6.8796V6.48011C6.88806 4.80731 8.28526 3.4492 10.0042 3.4492ZM10.7409 14.0458C10.7409 14.4516 10.4107 14.7745 9.99576 14.7745C9.5893 14.7745 9.25906 14.4516 9.25906 14.0458V12.2074C9.25906 11.8099 9.5893 11.4869 9.99576 11.4869C10.4107 11.4869 10.7409 11.8099 10.7409 12.2074V14.0458Z" fill="#9E9E9E"/>
</svg>
