<svg width="23" height="23" viewBox="0 0 23 23" fill="none" xmlns="http://www.w3.org/2000/svg">
<path fill-rule="evenodd" clip-rule="evenodd" d="M16.2337 2.875C17.5188 2.875 18.755 3.38292 19.6645 4.29429C20.5749 5.20375 21.0838 6.43042 21.0838 7.71458V15.2854C21.0838 17.9592 18.9084 20.125 16.2337 20.125H6.76628C4.09157 20.125 1.91711 17.9592 1.91711 15.2854V7.71458C1.91711 5.04083 4.08199 2.875 6.76628 2.875H16.2337ZM17.7584 9.14263L17.835 9.06596C18.0641 8.78804 18.0641 8.38554 17.8245 8.10763C17.6913 7.96484 17.5082 7.87763 17.3175 7.85846C17.1163 7.84792 16.9246 7.91596 16.7799 8.05013L12.4588 11.5001C11.9029 11.9611 11.1066 11.9611 10.5421 11.5001L6.22961 8.05013C5.93157 7.82971 5.51949 7.85846 5.27128 8.11721C5.01253 8.37596 4.98378 8.78804 5.20324 9.07554L5.32878 9.20013L9.6892 12.6022C10.2259 13.0239 10.8766 13.2539 11.5579 13.2539C12.2374 13.2539 12.8996 13.0239 13.4353 12.6022L17.7584 9.14263Z" fill="#FF8A9B"/>
</svg>
