<svg width="20" height="21" viewBox="0 0 20 21" fill="none" xmlns="http://www.w3.org/2000/svg">
<path fill-rule="evenodd" clip-rule="evenodd" d="M8.16939 13.0438C8.68978 13.3966 9.32401 13.6099 9.9989 13.6099C11.7878 13.6099 13.2432 12.1413 13.2432 10.3364C13.2432 9.65546 13.0318 9.01553 12.6822 8.49046L11.7959 9.38472C11.9422 9.66366 12.0236 9.99183 12.0236 10.3364C12.0236 11.4604 11.1129 12.3793 9.9989 12.3793C9.65739 12.3793 9.33215 12.2972 9.05569 12.1495L8.16939 13.0438ZM15.3573 5.79126C16.5363 6.87422 17.5365 8.33458 18.2845 10.0903C18.3496 10.2462 18.3496 10.4267 18.2845 10.5743C16.5445 14.66 13.4465 17.1049 9.9989 17.1049H9.99077C8.42146 17.1049 6.91719 16.588 5.59182 15.6446L4.01437 17.2362C3.8924 17.3592 3.73791 17.4167 3.58342 17.4167C3.42893 17.4167 3.26631 17.3592 3.15247 17.2362C2.94919 17.0311 2.91667 16.7029 3.07929 16.465L3.10368 16.4322L15.1297 4.29809C15.1459 4.28168 15.1622 4.26527 15.1703 4.24887L15.1703 4.24886C15.1866 4.23245 15.2028 4.21605 15.211 4.19964L15.9753 3.42844C16.2192 3.19052 16.6014 3.19052 16.8372 3.42844C17.0811 3.66637 17.0811 4.06017 16.8372 4.29809L15.3573 5.79126ZM6.74863 10.3396C6.74863 10.5529 6.77303 10.7662 6.80555 10.9631L3.79703 13.9987C2.98391 13.047 2.2765 11.8984 1.71545 10.5775C1.6504 10.4299 1.6504 10.2494 1.71545 10.0935C3.45552 6.00777 6.55349 3.57111 9.99296 3.57111H10.0011C11.1638 3.57111 12.2941 3.85006 13.3349 4.37513L10.6191 7.11534C10.4239 7.08253 10.2125 7.05791 10.0011 7.05791C8.20411 7.05791 6.74863 8.52647 6.74863 10.3396Z" fill="#9E9E9E"/>
</svg>
